<svg width="120" height="120" viewBox="0 0 120 120" fill="none" xmlns="http://www.w3.org/2000/svg">
<circle cx="60" cy="60" r="60" fill="#F3F0FE"/>
<g filter="url(#filter0_d_12_1385)">
<rect x="15.5103" y="48.9796" width="88.1633" height="58.7755" fill="#C09F00"/>
<path d="M15.5103 48.9796L59.5919 10.6122L103.674 48.9796H15.5103Z" fill="#C09F00"/>
<g filter="url(#filter1_d_12_1385)">
<rect x="26.9388" y="26.9388" width="64.4898" height="59.5918" fill="white"/>
</g>
<path d="M15.5103 48.9796L57.9592 86.4155L15.5102 108.571L15.5103 48.9796Z" fill="#F2C800"/>
<path d="M103.674 108.571L61.2246 86.4155L103.674 48.9796L103.674 108.571Z" fill="#F2C800"/>
<path d="M15.5103 108.571L59.5919 75.9183L103.674 108.571H15.5103Z" fill="#FFD10D"/>
<path d="M42.0279 53.0585L41.7553 55.5053L44.2353 54.8139L44.4548 56.4894L42.1941 56.649L43.6768 58.6237L42.1675 59.4282L41.1303 57.3471L40.2194 59.4149L38.6502 58.6237L40.1197 56.649L37.8723 56.4761L38.1316 54.8139L40.5585 55.5053L40.2859 53.0585H42.0279Z" fill="#5D3EBC"/>
<path d="M51.3545 53.0585L51.0819 55.5053L53.5619 54.8139L53.7814 56.4894L51.5207 56.649L53.0034 58.6237L51.4941 59.4282L50.4569 57.3471L49.546 59.4149L47.9768 58.6237L49.4462 56.649L47.1989 56.4761L47.4582 54.8139L49.8851 55.5053L49.6125 53.0585H51.3545Z" fill="#5D3EBC"/>
<path d="M60.6811 53.0585L60.4085 55.5053L62.8885 54.8139L63.108 56.4894L60.8473 56.649L62.33 58.6237L60.8207 59.4282L59.7835 57.3471L58.8726 59.4149L57.3034 58.6237L58.7728 56.649L56.5255 56.4761L56.7848 54.8139L59.2117 55.5053L58.9391 53.0585H60.6811Z" fill="#5D3EBC"/>
<path d="M70.0077 53.0585L69.7351 55.5053L72.2151 54.8139L72.4345 56.4894L70.1739 56.649L71.6566 58.6237L70.1473 59.4282L69.1101 57.3471L68.1992 59.4149L66.63 58.6237L68.0994 56.649L65.8521 56.4761L66.1114 54.8139L68.5383 55.5053L68.2657 53.0585H70.0077Z" fill="#5D3EBC"/>
<path d="M79.3343 53.0585L79.0617 55.5053L81.5417 54.8139L81.7611 56.4894L79.5005 56.649L80.9832 58.6237L79.4739 59.4282L78.4367 57.3471L77.5258 59.4149L75.9566 58.6237L77.426 56.649L75.1787 56.4761L75.438 54.8139L77.8649 55.5053L77.5923 53.0585H79.3343Z" fill="#5D3EBC"/>
</g>
<defs>
<filter id="filter0_d_12_1385" x="11.5103" y="10.6122" width="96.1633" height="105.959" filterUnits="userSpaceOnUse" color-interpolation-filters="sRGB">
<feFlood flood-opacity="0" result="BackgroundImageFix"/>
<feColorMatrix in="SourceAlpha" type="matrix" values="0 0 0 0 0 0 0 0 0 0 0 0 0 0 0 0 0 0 127 0" result="hardAlpha"/>
<feOffset dy="4"/>
<feGaussianBlur stdDeviation="2"/>
<feColorMatrix type="matrix" values="0 0 0 0 0.411765 0 0 0 0 0.454902 0 0 0 0 0.533333 0 0 0 0.15 0"/>
<feBlend mode="normal" in2="BackgroundImageFix" result="effect1_dropShadow_12_1385"/>
<feBlend mode="normal" in="SourceGraphic" in2="effect1_dropShadow_12_1385" result="shape"/>
</filter>
<filter id="filter1_d_12_1385" x="22.9388" y="26.9388" width="72.4897" height="69.5919" filterUnits="userSpaceOnUse" color-interpolation-filters="sRGB">
<feFlood flood-opacity="0" result="BackgroundImageFix"/>
<feColorMatrix in="SourceAlpha" type="matrix" values="0 0 0 0 0 0 0 0 0 0 0 0 0 0 0 0 0 0 127 0" result="hardAlpha"/>
<feOffset dy="6"/>
<feGaussianBlur stdDeviation="2"/>
<feColorMatrix type="matrix" values="0 0 0 0 0.345098 0 0 0 0 0.247059 0 0 0 0 0.709804 0 0 0 0.15 0"/>
<feBlend mode="normal" in2="BackgroundImageFix" result="effect1_dropShadow_12_1385"/>
<feBlend mode="normal" in="SourceGraphic" in2="effect1_dropShadow_12_1385" result="shape"/>
</filter>
</defs>
</svg>
