<svg width="274" height="42" viewBox="0 0 274 42" fill="none" xmlns="http://www.w3.org/2000/svg">
<path d="M13 40.1H273" stroke="#007787" stroke-width="2" stroke-linecap="round" stroke-linejoin="round"/>
<path d="M151.5 34V11.1562H157.672V29.0156H166.469V34H151.5Z" fill="#191919"/>
<path d="M186.672 25.1094C186.672 26.5885 186.469 27.901 186.062 29.0469C185.656 30.1927 185.068 31.1562 184.297 31.9375C183.526 32.7188 182.594 33.3125 181.5 33.7188C180.406 34.1146 179.172 34.3125 177.797 34.3125C176.516 34.3125 175.339 34.1146 174.266 33.7188C173.203 33.3125 172.276 32.7188 171.484 31.9375C170.693 31.1562 170.078 30.1927 169.641 29.0469C169.214 27.901 169 26.5885 169 25.1094C169 23.151 169.354 21.4948 170.062 20.1406C170.781 18.7865 171.802 17.7552 173.125 17.0469C174.458 16.3385 176.047 15.9844 177.891 15.9844C179.589 15.9844 181.099 16.3385 182.422 17.0469C183.745 17.7552 184.781 18.7865 185.531 20.1406C186.292 21.4948 186.672 23.151 186.672 25.1094ZM175.203 25.1094C175.203 26.1198 175.292 26.974 175.469 27.6719C175.646 28.3594 175.927 28.8854 176.312 29.25C176.708 29.6042 177.224 29.7812 177.859 29.7812C178.495 29.7812 179 29.6042 179.375 29.25C179.75 28.8854 180.021 28.3594 180.188 27.6719C180.365 26.974 180.453 26.1198 180.453 25.1094C180.453 24.099 180.365 23.2552 180.188 22.5781C180.021 21.901 179.745 21.3906 179.359 21.0469C178.984 20.7031 178.474 20.5312 177.828 20.5312C176.901 20.5312 176.229 20.9167 175.812 21.6875C175.406 22.4583 175.203 23.599 175.203 25.1094Z" fill="#191919"/>
<path d="M189.719 41.1094C189.229 41.1094 188.667 41.0677 188.031 40.9844C187.385 40.9115 186.854 40.8229 186.438 40.7188V35.9531C186.771 36.0469 187.078 36.1146 187.359 36.1562C187.641 36.2083 187.958 36.2344 188.312 36.2344C188.812 36.2344 189.245 36.0573 189.609 35.7031C189.984 35.3594 190.172 34.651 190.172 33.5781V16.2969H196.281V34.8594C196.281 35.9219 196.073 36.9271 195.656 37.875C195.24 38.8333 194.552 39.6094 193.594 40.2031C192.635 40.8073 191.344 41.1094 189.719 41.1094ZM190.016 11.8906C190.016 10.8073 190.328 10.0833 190.953 9.71875C191.589 9.35417 192.354 9.17188 193.25 9.17188C194.125 9.17188 194.885 9.35417 195.531 9.71875C196.188 10.0833 196.516 10.8073 196.516 11.8906C196.516 12.9427 196.188 13.6562 195.531 14.0312C194.885 14.3958 194.125 14.5781 193.25 14.5781C192.354 14.5781 191.589 14.3958 190.953 14.0312C190.328 13.6562 190.016 12.9427 190.016 11.8906Z" fill="#191919"/>
<path d="M206.688 16.2969V34H200.578V16.2969H206.688ZM203.656 9.17188C204.531 9.17188 205.292 9.35417 205.938 9.71875C206.594 10.0833 206.922 10.8073 206.922 11.8906C206.922 12.9427 206.594 13.6562 205.938 14.0312C205.292 14.3958 204.531 14.5781 203.656 14.5781C202.76 14.5781 201.995 14.3958 201.359 14.0312C200.734 13.6562 200.422 12.9427 200.422 11.8906C200.422 10.8073 200.734 10.0833 201.359 9.71875C201.995 9.35417 202.76 9.17188 203.656 9.17188Z" fill="#191919"/>
<path d="M224.109 28.5625C224.109 29.6875 223.859 30.6823 223.359 31.5469C222.859 32.4115 222.057 33.0885 220.953 33.5781C219.859 34.0677 218.417 34.3125 216.625 34.3125C215.365 34.3125 214.234 34.2448 213.234 34.1094C212.245 33.974 211.24 33.7135 210.219 33.3281V28.4375C211.333 28.9479 212.469 29.3177 213.625 29.5469C214.781 29.7656 215.693 29.875 216.359 29.875C217.047 29.875 217.547 29.8021 217.859 29.6562C218.182 29.5 218.344 29.2708 218.344 28.9688C218.344 28.7083 218.234 28.4896 218.016 28.3125C217.807 28.125 217.427 27.9115 216.875 27.6719C216.333 27.4323 215.568 27.1094 214.578 26.7031C213.599 26.2969 212.781 25.8542 212.125 25.375C211.479 24.8958 210.995 24.3229 210.672 23.6562C210.349 22.9896 210.188 22.1719 210.188 21.2031C210.188 19.474 210.854 18.1719 212.188 17.2969C213.521 16.4219 215.286 15.9844 217.484 15.9844C218.651 15.9844 219.75 16.1146 220.781 16.375C221.812 16.625 222.88 16.9948 223.984 17.4844L222.312 21.4219C221.438 21.026 220.552 20.7083 219.656 20.4688C218.76 20.2292 218.047 20.1094 217.516 20.1094C217.036 20.1094 216.667 20.1719 216.406 20.2969C216.146 20.4219 216.016 20.6042 216.016 20.8438C216.016 21.0625 216.104 21.2552 216.281 21.4219C216.469 21.5885 216.818 21.7812 217.328 22C217.839 22.2188 218.583 22.526 219.562 22.9219C220.594 23.3385 221.443 23.7865 222.109 24.2656C222.786 24.7344 223.286 25.3073 223.609 25.9844C223.943 26.6615 224.109 27.5208 224.109 28.5625Z" fill="#191919"/>
<path d="M236.188 29.4844C236.74 29.4844 237.245 29.4271 237.703 29.3125C238.161 29.1979 238.641 29.0521 239.141 28.875V33.3281C238.474 33.6198 237.766 33.8542 237.016 34.0312C236.276 34.2188 235.328 34.3125 234.172 34.3125C233.026 34.3125 232.016 34.1354 231.141 33.7812C230.266 33.4167 229.583 32.7917 229.094 31.9062C228.615 31.0104 228.375 29.7656 228.375 28.1719V20.875H226.234V18.3906L228.953 16.4688L230.531 12.75H234.531V16.2969H238.875V20.875H234.531V27.7656C234.531 28.3385 234.677 28.7708 234.969 29.0625C235.26 29.3438 235.667 29.4844 236.188 29.4844Z" fill="#191919"/>
<path d="M248.375 16.2969V34H242.266V16.2969H248.375ZM245.344 9.17188C246.219 9.17188 246.979 9.35417 247.625 9.71875C248.281 10.0833 248.609 10.8073 248.609 11.8906C248.609 12.9427 248.281 13.6562 247.625 14.0312C246.979 14.3958 246.219 14.5781 245.344 14.5781C244.448 14.5781 243.682 14.3958 243.047 14.0312C242.422 13.6562 242.109 12.9427 242.109 11.8906C242.109 10.8073 242.422 10.0833 243.047 9.71875C243.682 9.35417 244.448 9.17188 245.344 9.17188Z" fill="#191919"/>
<path d="M258.781 9.6875V19.25C258.781 19.9688 258.75 20.7708 258.688 21.6562C258.635 22.5312 258.552 23.3281 258.438 24.0469H258.562C258.802 23.6823 259.104 23.224 259.469 22.6719C259.833 22.1198 260.161 21.6615 260.453 21.2969L264.422 16.2969H271.234L265.094 23.8281L271.625 34H264.641L260.766 27.6562L258.781 29.1719V34H252.641V9.6875H258.781Z" fill="#191919"/>
<path d="M80.0964 34L78.9296 29.7071H71.2322L70.033 34H63L70.7298 11H79.2699L87.097 34H80.0964ZM77.6008 24.6308L76.5799 20.8706C76.4719 20.4632 76.3152 19.8835 76.1099 19.1315C75.9047 18.369 75.6994 17.5856 75.4942 16.7813C75.2997 15.9666 75.1484 15.2981 75.0404 14.7759C74.9432 15.2981 74.8027 15.9457 74.6191 16.7187C74.4462 17.4812 74.2626 18.2384 74.0681 18.9905C73.8844 19.7425 73.7224 20.3692 73.5819 20.8706L72.561 24.6308H77.6008Z" fill="#007787"/>
<path d="M95.9774 34H89.6736V11.094H103.675V16.0606H95.9774V20.4319H103.075V25.3985H95.9774V34Z" fill="#007787"/>
<path d="M121.63 34H107.564V11.094H121.63V16.0606H113.965V19.6642H121.063V24.6308H113.965V28.955H121.63V34Z" fill="#007787"/>
<path d="M136.231 34H129.83V16.1546H124.045V11.094H142V16.1546H136.231V34Z" fill="#007787"/>
<path d="M3.72934 35.3029L3.73019 35.3029H3.74504H8.18743C8.57591 38.3859 11.1934 40.7824 14.3676 40.7824C17.5417 40.7824 20.1597 38.3859 20.5481 35.3029H41.9968C42.3853 38.3859 45.0028 40.7824 48.1769 40.7824C51.3511 40.7824 53.9686 38.3859 54.3571 35.3029H56.1353C57.3727 35.3029 58.375 34.2914 58.375 33.052V18.7974C58.375 18.0707 58.1146 17.368 57.6417 16.8177L52.082 10.3387L52.0814 10.338C51.521 9.68816 50.7094 9.31487 49.8538 9.31487H39.5626V3.76124C39.5626 2.03325 38.163 0.625 36.4385 0.625L3.74466 0.625409C3.74465 0.625409 3.74465 0.625409 3.74465 0.625409C2.02219 0.625411 0.625 2.03374 0.625 3.76123V32.1667C0.625 33.889 2.01385 35.2945 3.72934 35.3029ZM56.4439 17.8532L56.444 17.8533C56.6692 18.1155 56.7935 18.4506 56.7935 18.797V21.5163H44.7363C44.6748 21.5163 44.6202 21.4646 44.6202 21.3972V14.5629C44.6202 14.4952 44.6746 14.4437 44.7363 14.4437H53.5182L56.4439 17.8532ZM39.554 32.3986L39.5629 32.394V32.1669V10.9017H49.8541C50.2489 10.9017 50.6243 11.074 50.8842 11.3755C50.8843 11.3755 50.8843 11.3755 50.8843 11.3756L52.1558 12.8573H44.7359C43.797 12.8573 43.0377 13.6249 43.0377 14.5635V21.3974C43.0377 22.3364 43.797 23.1036 44.7359 23.1036H56.793V33.0524C56.793 33.4201 56.4955 33.7163 56.1353 33.7163H54.3569C53.9674 30.6343 51.3503 28.2389 48.177 28.2389C45.0036 28.2389 42.3865 30.6343 41.9969 33.7163H39.1528C39.377 33.3226 39.5191 32.8755 39.554 32.3986ZM2.20832 32.1677L2.20832 32.1676L2.20783 26.6202H37.9809V32.1681C37.9809 33.0233 37.2875 33.7173 36.4388 33.7173L20.5489 33.7169C20.1593 30.6348 17.5418 28.2394 14.3685 28.2394C11.1952 28.2394 8.57806 30.6348 8.1885 33.7169H3.74598C2.90055 33.7169 2.20832 33.0237 2.20832 32.1677ZM48.1773 39.1954C45.6228 39.1954 43.5386 37.1111 43.5235 34.5388C43.5236 34.5372 43.5237 34.5356 43.5239 34.5339C43.5243 34.5263 43.5246 34.5181 43.5246 34.5094C43.5246 34.4989 43.5242 34.4891 43.5235 34.4801C43.54 31.9091 45.6237 29.8254 48.1773 29.8254C50.7351 29.8254 52.8218 31.9158 52.8316 34.4927C52.8314 34.4982 52.8312 34.5037 52.8312 34.5094C52.8312 34.5151 52.8314 34.5207 52.8316 34.5263C52.8232 37.1038 50.7362 39.1954 48.1773 39.1954ZM43.51 34.4047L43.509 34.4012L43.5086 34.3998L43.51 34.4047ZM52.8504 34.628C52.8505 34.6283 52.8503 34.6279 52.8501 34.6272L52.8502 34.6274L52.8503 34.6278L52.8503 34.6279L52.8504 34.628ZM14.3679 39.1956C11.804 39.1956 9.71356 37.0961 9.71356 34.5109C9.71356 31.9256 11.8041 29.8258 14.3679 29.8258C16.9321 29.8258 19.0226 31.9256 19.0226 34.5109C19.0226 37.0961 16.9322 39.1956 14.3679 39.1956ZM2.2078 3.76167C2.2078 2.90561 2.90003 2.21246 3.74546 2.21246H36.4393C37.288 2.21246 37.9814 2.90645 37.9814 3.76167V25.0332H2.20831L2.2078 3.76167C2.2078 3.76167 2.2078 3.76167 2.2078 3.76167Z" fill="#007787" stroke="#007787" stroke-width="0.75"/>
</svg>
