<svg width="60" height="42" viewBox="0 0 60 42" fill="none" xmlns="http://www.w3.org/2000/svg">
<path d="M4.22934 35.3029L4.23019 35.3029H4.24504H8.68743C9.07591 38.3859 11.6934 40.7824 14.8676 40.7824C18.0417 40.7824 20.6597 38.3859 21.0481 35.3029H42.4968C42.8853 38.3859 45.5028 40.7824 48.6769 40.7824C51.8511 40.7824 54.4686 38.3859 54.8571 35.3029H56.6353C57.8727 35.3029 58.875 34.2914 58.875 33.052V18.7974C58.875 18.0707 58.6146 17.368 58.1417 16.8177L52.582 10.3387L52.5814 10.338C52.021 9.68816 51.2094 9.31487 50.3538 9.31487H40.0626V3.76124C40.0626 2.03325 38.663 0.625 36.9385 0.625L4.24466 0.625409C4.24465 0.625409 4.24465 0.625409 4.24465 0.625409C2.52219 0.625411 1.125 2.03374 1.125 3.76123V32.1667C1.125 33.889 2.51385 35.2945 4.22934 35.3029ZM56.9439 17.8532L56.944 17.8533C57.1692 18.1155 57.2935 18.4506 57.2935 18.797V21.5163H45.2363C45.1748 21.5163 45.1202 21.4646 45.1202 21.3972V14.5629C45.1202 14.4952 45.1746 14.4437 45.2363 14.4437H54.0182L56.9439 17.8532ZM40.054 32.3986L40.0629 32.394V32.1669V10.9017H50.3541C50.7489 10.9017 51.1243 11.074 51.3842 11.3755C51.3843 11.3755 51.3843 11.3755 51.3843 11.3756L52.6558 12.8573H45.2359C44.297 12.8573 43.5377 13.6249 43.5377 14.5635V21.3974C43.5377 22.3364 44.297 23.1036 45.2359 23.1036H57.293V33.0524C57.293 33.4201 56.9955 33.7163 56.6353 33.7163H54.8569C54.4674 30.6343 51.8503 28.2389 48.677 28.2389C45.5036 28.2389 42.8865 30.6343 42.4969 33.7163H39.6528C39.877 33.3226 40.0191 32.8755 40.054 32.3986ZM2.70832 32.1677L2.70832 32.1676L2.70783 26.6202H38.4809V32.1681C38.4809 33.0233 37.7875 33.7173 36.9388 33.7173L21.0489 33.7169C20.6593 30.6348 18.0418 28.2394 14.8685 28.2394C11.6952 28.2394 9.07806 30.6348 8.6885 33.7169H4.24598C3.40055 33.7169 2.70832 33.0237 2.70832 32.1677ZM48.6773 39.1954C46.1228 39.1954 44.0386 37.1111 44.0235 34.5388C44.0236 34.5372 44.0237 34.5356 44.0239 34.5339C44.0243 34.5263 44.0246 34.5181 44.0246 34.5094C44.0246 34.4989 44.0242 34.4891 44.0235 34.4801C44.04 31.9091 46.1237 29.8254 48.6773 29.8254C51.2351 29.8254 53.3218 31.9158 53.3316 34.4927C53.3314 34.4982 53.3312 34.5037 53.3312 34.5094C53.3312 34.5151 53.3314 34.5207 53.3316 34.5263C53.3232 37.1038 51.2362 39.1954 48.6773 39.1954ZM44.01 34.4047L44.009 34.4012L44.0086 34.3998L44.01 34.4047ZM53.3504 34.628C53.3505 34.6283 53.3503 34.6279 53.3501 34.6272L53.3502 34.6274L53.3503 34.6278L53.3503 34.6279L53.3504 34.628ZM14.8679 39.1956C12.304 39.1956 10.2136 37.0961 10.2136 34.5109C10.2136 31.9256 12.3041 29.8258 14.8679 29.8258C17.4321 29.8258 19.5226 31.9256 19.5226 34.5109C19.5226 37.0961 17.4322 39.1956 14.8679 39.1956ZM2.7078 3.76167C2.7078 2.90561 3.40003 2.21246 4.24546 2.21246H36.9393C37.788 2.21246 38.4814 2.90645 38.4814 3.76167V25.0332H2.70831L2.7078 3.76167C2.7078 3.76167 2.7078 3.76167 2.7078 3.76167Z" fill="#007787" stroke="#007787" stroke-width="0.75"/>
</svg>
